<svg version="1.1" id="Layer_1" xmlns="http://www.w3.org/2000/svg" xmlns:xlink="http://www.w3.org/1999/xlink" x="0px" y="0px"
	 width="100%" viewBox="0 0 500 500" enable-background="new 0 0 500 500" xml:space="preserve">
<path fill="#000000" opacity="1.000000" stroke="none" 
	d="
M231.000000,501.000000 
	C154.000015,501.000000 77.500038,501.000000 1.000041,501.000000 
	C1.000027,334.333405 1.000027,167.666779 1.000014,1.000131 
	C167.666565,1.000087 334.333130,1.000087 500.999756,1.000044 
	C500.999847,167.666519 500.999847,334.333038 500.999939,500.999786 
	C411.166656,501.000000 321.333344,501.000000 231.000000,501.000000 
M346.613159,208.990936 
	C346.769104,208.670990 346.925049,208.351044 347.016846,208.001801 
	C347.016846,208.001801 347.033997,208.070206 347.614136,207.769577 
	C347.404358,206.124512 347.194580,204.479431 347.021210,202.087219 
	C346.025055,199.525757 345.025818,196.965454 344.033234,194.402618 
	C340.635406,185.629532 337.239929,176.855545 333.971130,167.215225 
	C331.616638,166.835785 329.262177,166.456345 326.586639,165.927689 
	C326.586639,165.927689 326.246429,166.025696 325.767029,165.257507 
	C325.111267,165.171707 324.455566,165.011017 323.799774,165.010803 
	C286.303497,164.998596 248.807190,164.990479 211.310974,165.042145 
	C210.128647,165.043777 208.947205,165.675125 207.500198,165.913910 
	C207.500198,165.913910 207.235199,166.013336 206.756241,165.248734 
	C196.434647,165.167664 186.113068,165.066986 175.791367,165.050247 
	C175.112991,165.049149 174.433563,165.689545 173.419846,165.932190 
	C173.419846,165.932190 173.103943,166.081100 172.320663,166.015167 
	C170.945007,167.003937 169.569336,167.992722 168.005203,169.718521 
	C163.412735,181.244965 158.705093,192.729126 154.432144,204.372833 
	C154.064362,205.375046 156.577118,207.434341 158.303452,209.709335 
	C159.949661,209.806915 161.595673,209.986008 163.242096,209.989655 
	C183.811661,210.035294 204.381287,210.055527 224.989151,210.016159 
	C224.989151,210.016159 224.914551,210.032516 224.991669,210.962036 
	C224.994202,250.994675 224.985001,291.027344 225.042175,331.059906 
	C225.044464,332.662170 225.676056,334.263519 226.939545,335.989319 
	C242.869614,335.995483 258.799805,336.031036 274.729492,335.956818 
	C276.131409,335.950287 277.529938,335.225281 279.053375,334.528107 
	C279.053375,334.528107 278.971619,334.208618 279.749084,333.750031 
	C279.832764,325.608307 279.969299,317.466431 279.952728,309.324921 
	C279.949646,307.813293 279.330017,306.302887 279.066010,304.406799 
	C279.066010,304.406799 278.915314,304.045288 278.985718,303.097473 
	C278.990479,289.273224 278.997284,275.448944 278.999390,261.624695 
	C279.001495,247.633850 278.743408,233.634903 279.187073,219.658157 
	C279.291351,216.373520 277.836792,211.518875 283.427704,210.045441 
	C283.427704,210.045441 283.788635,209.971878 284.247742,210.749405 
	C303.246460,210.830505 322.245209,210.922302 341.243988,210.948608 
	C341.916016,210.949539 342.588959,210.301208 343.520355,210.066116 
	C343.520355,210.066116 343.775909,209.948105 344.499329,210.059280 
	C345.019135,209.731110 345.538971,209.402939 346.002533,209.004272 
	C346.002533,209.004272 346.056702,209.071548 346.613159,208.990936 
M281.235352,242.233688 
	C281.152191,249.722137 281.010712,257.210785 281.035004,264.698883 
	C281.039856,266.196991 281.676666,267.693054 281.993561,269.883209 
	C283.643250,271.969330 285.292938,274.055420 287.185242,276.657043 
	C287.724274,276.766022 288.263275,276.875000 289.254608,277.762939 
	C330.517700,277.800110 371.780762,277.837311 413.878357,278.031982 
	C416.278687,277.743622 418.678986,277.455292 421.996185,277.021332 
	C427.980652,277.009308 433.966370,277.066833 439.949219,276.962646 
	C444.538971,276.882782 446.052032,274.642029 443.944397,270.703735 
	C440.487671,264.244507 436.773682,257.920898 433.090698,251.585159 
	C424.420593,236.670410 415.738495,221.762421 406.996948,206.889481 
	C399.746704,194.553772 392.404541,182.272079 385.030396,169.348236 
	C384.716675,168.874756 384.402985,168.401276 383.999481,167.957016 
	C383.999481,167.957016 384.078827,167.904404 383.883820,167.320587 
	C383.217926,166.916824 382.552032,166.513077 381.728088,165.218658 
	C369.410004,165.144943 357.091949,165.054840 344.773804,165.042419 
	C344.107361,165.041748 343.440247,165.691849 342.108551,166.300247 
	C341.924927,167.594620 341.219727,169.096298 341.638947,170.151077 
	C345.517578,179.909805 349.534180,189.615448 353.669617,199.268448 
	C354.261444,200.649979 355.930939,202.826004 356.710114,202.670639 
	C362.490387,201.518097 364.985657,205.587906 367.969513,208.994598 
	C367.969513,208.994598 367.908630,209.077377 367.999908,209.797409 
	C372.517090,217.743378 377.034302,225.689346 381.684052,233.868484 
	C378.174438,234.340271 375.102325,234.753250 371.579102,235.038330 
	C371.579102,235.038330 371.111694,235.000687 370.760681,234.238403 
	C368.523468,234.126144 366.286224,234.013885 363.615967,233.140259 
	C342.074188,233.094482 320.532440,233.040466 298.990662,233.040619 
	C298.311981,233.040619 297.633301,233.598572 296.053467,233.968521 
	C293.015564,234.009964 289.977692,234.051407 286.323700,234.145477 
	C285.523865,235.070251 284.724030,235.995041 283.997864,237.000000 
	C283.997864,237.000000 283.919250,236.923950 283.254608,237.195801 
	C282.844330,238.729858 282.434052,240.263916 281.235352,242.233688 
M213.706375,236.207397 
	C208.227783,236.136902 202.749237,236.010605 197.270584,236.005478 
	C172.002304,235.981857 146.733810,236.025375 121.466049,235.906418 
	C119.961365,235.899353 118.462357,234.687012 117.625244,233.792038 
	C122.977318,225.126724 128.356720,216.478134 133.668610,207.788254 
	C135.938477,204.074905 138.291061,200.915680 143.525940,201.800629 
	C144.630798,201.987396 146.711899,200.342712 147.290619,199.065109 
	C151.366165,190.067780 155.064392,180.899857 159.115265,171.890793 
	C160.369736,169.100906 162.084641,166.641449 158.725952,163.255768 
	C146.439438,163.172516 134.152939,163.073456 121.866302,163.050079 
	C121.212227,163.048843 120.556938,163.686203 119.187561,164.025162 
	C113.339539,166.170578 111.677193,171.801483 108.835419,176.452103 
	C90.260544,206.850296 71.671951,237.240128 53.116844,267.650391 
	C49.256439,273.977264 51.462170,277.895233 59.107143,277.976898 
	C69.086945,278.083527 79.069870,277.898407 89.886635,277.985962 
	C92.945847,277.953400 96.005066,277.920837 99.441933,278.027649 
	C99.441933,278.027649 99.840736,277.972839 100.275154,278.758240 
	C113.903831,278.834595 127.532478,278.925507 141.161240,278.943573 
	C141.828201,278.944458 142.496033,278.308105 143.556564,278.027100 
	C143.556564,278.027100 143.929810,277.890533 144.880768,277.984436 
	C159.052734,278.323090 173.224106,278.885315 187.396851,278.922302 
	C196.927414,278.947144 206.459900,278.229034 216.721359,277.945953 
	C219.912720,277.241699 221.783951,275.399170 221.997345,271.068298 
	C222.001495,262.821838 222.055435,254.574814 221.964294,246.329391 
	C221.947754,244.832077 221.337616,243.341293 220.980881,241.142029 
	C219.346222,240.086227 217.711578,239.030441 215.937439,237.452728 
	C215.626175,237.331863 215.314911,237.210999 214.580566,236.953171 
	C214.580566,236.953171 214.137131,236.986557 213.706375,236.207397 
z"/>
<path fill="#4473C5" opacity="1.000000" stroke="none" 
	d="
M283.788635,209.971863 
	C283.788635,209.971878 283.427704,210.045441 283.023773,209.716309 
	C281.099213,209.597931 279.578613,209.808685 277.748352,210.300385 
	C277.292480,212.388214 277.019836,214.194977 277.018646,216.001923 
	C276.994110,253.648544 276.951965,291.295349 277.074341,328.941589 
	C277.086761,332.765106 276.182953,334.176636 272.087524,334.095642 
	C259.099518,333.838867 246.093277,333.705017 233.114929,334.142181 
	C227.761719,334.322479 226.872864,332.471313 226.897278,327.639648 
	C227.085770,290.327118 227.014816,253.013184 226.959930,215.699783 
	C226.957123,213.794830 226.363754,211.890747 225.760529,209.946381 
	C225.288681,209.948517 225.101608,209.990524 224.914551,210.032516 
	C224.914551,210.032516 224.989151,210.016159 225.031433,209.761597 
	C225.049316,209.312515 225.024918,209.117966 224.691498,208.647568 
	C223.739471,208.249557 223.096588,208.021347 222.453461,208.020660 
	C202.764160,207.999695 183.074814,207.988968 163.385605,208.031113 
	C162.292130,208.033447 161.199631,208.501862 159.714005,208.790253 
	C158.798141,208.885651 158.274948,208.944122 157.751770,209.002594 
	C156.577118,207.434341 154.064362,205.375046 154.432144,204.372833 
	C158.705093,192.729126 163.412735,181.244965 168.372238,169.320862 
	C169.161652,168.617676 169.584030,168.312134 170.474640,168.004852 
	C224.978378,167.998520 279.013855,167.993927 333.247253,168.018066 
	C333.445160,168.046783 333.843567,168.081894 333.843567,168.081894 
	C337.239929,176.855545 340.635406,185.629532 344.033234,194.402618 
	C345.025818,196.965454 346.025055,199.525757 347.024780,202.899063 
	C347.030243,205.164001 347.032135,206.617111 347.033997,208.070206 
	C347.033997,208.070206 347.016846,208.001801 346.741455,208.017731 
	C346.329620,208.379623 346.193176,208.725586 346.056702,209.071548 
	C346.056702,209.071548 346.002533,209.004272 345.704132,208.916809 
	C344.862457,209.202255 344.319183,209.575195 343.775909,209.948120 
	C343.775909,209.948105 343.520355,210.066116 342.907990,209.931854 
	C322.793304,209.855682 303.290955,209.913773 283.788635,209.971863 
z"/>
<path fill="#4674C4" opacity="1.000000" stroke="none" 
	d="
M158.848190,164.157715 
	C162.084641,166.641449 160.369736,169.100906 159.115265,171.890793 
	C155.064392,180.899857 151.366165,190.067780 147.290619,199.065109 
	C146.711899,200.342712 144.630798,201.987396 143.525940,201.800629 
	C138.291061,200.915680 135.938477,204.074905 133.668610,207.788254 
	C128.356720,216.478134 122.977318,225.126724 117.009048,234.124695 
	C116.091324,235.278946 115.789795,236.100571 115.356140,237.282211 
	C117.833496,237.282211 119.811806,237.279358 121.790092,237.282639 
	C133.857010,237.302673 145.923920,237.324112 158.125397,237.709473 
	C159.317703,238.381958 160.374542,238.954849 161.433334,238.958481 
	C178.055359,239.015335 194.677734,239.019348 211.299728,238.957306 
	C212.531708,238.952713 213.761444,238.351929 215.263351,238.013824 
	C215.715286,237.991119 215.896103,237.982880 216.076920,237.974640 
	C217.711578,239.030441 219.346222,240.086227 220.978516,241.974731 
	C220.985580,247.631302 220.888901,252.458389 221.033966,257.278198 
	C221.181763,262.188934 221.567398,267.092499 221.848877,271.999207 
	C221.783951,275.399170 219.912720,277.241699 216.045258,277.619232 
	C192.302643,277.200897 169.236176,277.101013 146.169586,277.054688 
	C145.423553,277.053192 144.676422,277.599548 143.929810,277.890533 
	C143.929810,277.890533 143.556564,278.027100 142.882675,277.938751 
	C128.086105,277.891235 113.963417,277.932037 99.840736,277.972839 
	C99.840736,277.972839 99.441933,278.027649 98.948135,277.690918 
	C95.320045,277.515717 92.185745,277.677246 89.051453,277.838806 
	C79.069870,277.898407 69.086945,278.083527 59.107143,277.976898 
	C51.462170,277.895233 49.256439,273.977264 53.116844,267.650391 
	C71.671951,237.240128 90.260544,206.850296 108.835419,176.452103 
	C111.677193,171.801483 113.339539,166.170578 120.019371,164.059631 
	C133.516846,164.115311 146.182526,164.136520 158.848190,164.157715 
z"/>
<path fill="#4674C4" opacity="1.000000" stroke="none" 
	d="
M371.111694,235.000687 
	C371.111694,235.000687 371.579102,235.038330 372.117676,235.358978 
	C376.580933,235.679611 380.505646,235.679611 385.612823,235.679611 
	C381.020569,228.219833 377.344299,222.044357 373.445343,216.012833 
	C371.847443,213.540909 369.768677,211.379837 367.908630,209.077377 
	C367.908630,209.077377 367.969513,208.994598 367.966125,208.649979 
	C367.165039,203.584030 365.340485,200.307617 359.571808,200.804245 
	C358.244080,200.918549 356.091309,199.011627 355.391388,197.528412 
	C352.574463,191.558884 350.096924,185.423157 347.656860,179.284088 
	C346.176483,175.559448 344.994476,171.716202 343.670868,167.904404 
	C357.742340,167.904404 370.910583,167.904404 384.078827,167.904404 
	C384.078827,167.904404 383.999481,167.957016 384.038147,168.254044 
	C384.418884,169.022873 384.760986,169.494675 385.103088,169.966476 
	C392.404541,182.272079 399.746704,194.553772 406.996948,206.889481 
	C415.738495,221.762421 424.420593,236.670410 433.090698,251.585159 
	C436.773682,257.920898 440.487671,264.244507 443.944397,270.703735 
	C446.052032,274.642029 444.538971,276.882782 439.949219,276.962646 
	C433.966370,277.066833 427.980652,277.009308 421.464355,276.731964 
	C418.327881,276.553406 415.723236,276.664185 412.643463,276.802795 
	C371.046356,276.881683 329.924316,276.932831 288.802307,276.983978 
	C288.263275,276.875000 287.724274,276.766022 287.077271,276.011414 
	C285.432037,269.574005 283.894806,263.782166 282.273254,257.533203 
	C282.247711,253.012283 282.306488,248.948532 282.589600,244.617432 
	C283.182343,241.874710 283.550781,239.399323 283.919250,236.923950 
	C283.919250,236.923950 283.997864,237.000000 284.388855,236.978851 
	C287.885803,236.638687 290.990814,236.053284 294.097778,236.043076 
	C317.641296,235.965698 341.185242,236.017670 364.728943,235.967651 
	C366.488953,235.963913 368.247955,235.482346 370.281250,235.156082 
	C370.740570,235.059723 370.926117,235.030212 371.111694,235.000687 
z"/>
<path fill="#4A72B9" opacity="1.000000" stroke="none" 
	d="
M226.045334,209.986267 
	C226.363754,211.890747 226.957123,213.794830 226.959930,215.699783 
	C227.014816,253.013184 227.085770,290.327118 226.897278,327.639648 
	C226.872864,332.471313 227.761719,334.322479 233.114929,334.142181 
	C246.093277,333.705017 259.099518,333.838867 272.087524,334.095642 
	C276.182953,334.176636 277.086761,332.765106 277.074341,328.941589 
	C276.951965,291.295349 276.994110,253.648544 277.018646,216.001923 
	C277.019836,214.194977 277.292480,212.388214 277.736694,210.767014 
	C278.024658,240.412857 278.000610,269.873077 278.043457,299.333160 
	C278.045715,300.904266 278.611725,302.474609 278.915314,304.045288 
	C278.915314,304.045288 279.066010,304.406799 278.927185,305.072998 
	C278.849426,315.228973 278.910522,324.718811 278.971619,334.208618 
	C278.971619,334.208618 279.053375,334.528107 278.528290,334.706543 
	C260.712646,334.878723 243.422073,334.872437 226.085190,334.408081 
	C226.041031,292.628784 226.043182,251.307526 226.045334,209.986267 
z"/>
<path fill="#4A72B9" opacity="1.000000" stroke="none" 
	d="
M333.049347,167.989334 
	C279.013855,167.993927 224.978378,167.998520 170.632065,167.727509 
	C171.248810,166.994980 172.176376,166.538040 173.103943,166.081100 
	C173.103943,166.081100 173.419846,165.932190 174.062744,166.093750 
	C185.548843,166.174667 196.392014,166.093994 207.235199,166.013336 
	C207.235199,166.013336 207.500198,165.913910 208.105377,166.082611 
	C246.902908,166.276093 285.095245,166.303131 323.287598,166.313004 
	C324.273834,166.313248 325.260162,166.125671 326.246429,166.025696 
	C326.246429,166.025696 326.586639,165.927689 327.003723,166.283264 
	C329.296967,167.088989 331.173157,167.539169 333.049347,167.989334 
z"/>
<path fill="#4A72B9" opacity="1.000000" stroke="none" 
	d="
M383.981323,167.612488 
	C370.910583,167.904404 357.742340,167.904404 343.670868,167.904404 
	C344.994476,171.716202 346.176483,175.559448 347.656860,179.284088 
	C350.096924,185.423157 352.574463,191.558884 355.391388,197.528412 
	C356.091309,199.011627 358.244080,200.918549 359.571808,200.804245 
	C365.340485,200.307617 367.165039,203.584030 367.941742,208.692688 
	C364.985657,205.587906 362.490387,201.518097 356.710114,202.670639 
	C355.930939,202.826004 354.261444,200.649979 353.669617,199.268448 
	C349.534180,189.615448 345.517578,179.909805 341.638947,170.151077 
	C341.219727,169.096298 341.924927,167.594620 342.925873,166.200500 
	C356.457520,166.103592 369.171814,166.106445 381.886139,166.109314 
	C382.552032,166.513077 383.217926,166.916824 383.981323,167.612488 
z"/>
<path fill="#F8FDFF" opacity="1.000000" stroke="none" 
	d="
M296.954620,233.896393 
	C297.633301,233.598572 298.311981,233.040619 298.990662,233.040619 
	C320.532440,233.040466 342.074188,233.094482 363.693481,233.666199 
	C363.771027,234.192123 363.694275,234.586670 363.246338,234.595276 
	C340.968719,234.595825 319.139069,234.587769 297.271179,234.382690 
	C297.232941,234.185669 296.954620,233.896393 296.954620,233.896393 
z"/>
<path fill="#BACEEA" opacity="1.000000" stroke="none" 
	d="
M225.760529,209.946381 
	C226.043182,251.307526 226.041031,292.628784 226.051147,334.657471 
	C226.047073,335.531708 226.030746,335.698517 226.014435,335.865295 
	C225.676056,334.263519 225.044464,332.662170 225.042175,331.059906 
	C224.985001,291.027344 224.994202,250.994675 224.953110,210.497284 
	C225.101608,209.990524 225.288681,209.948517 225.760529,209.946381 
z"/>
<path fill="#C6D8F4" opacity="1.000000" stroke="none" 
	d="
M289.028442,277.373474 
	C329.924316,276.932831 371.046356,276.881683 412.630371,277.078400 
	C413.076202,277.509003 413.060028,277.691742 413.043854,277.874512 
	C371.780762,277.837311 330.517700,277.800110 289.028442,277.373474 
z"/>
<path fill="#F8FDFF" opacity="1.000000" stroke="none" 
	d="
M326.006714,165.641602 
	C325.260162,166.125671 324.273834,166.313248 323.287598,166.313004 
	C285.095245,166.303131 246.902908,166.276093 208.237961,166.132111 
	C208.947205,165.675125 210.128647,165.043777 211.310974,165.042145 
	C248.807190,164.990479 286.303497,164.998596 323.799774,165.010803 
	C324.455566,165.011017 325.111267,165.171707 326.006714,165.641602 
z"/>
<path fill="#4A72B9" opacity="1.000000" stroke="none" 
	d="
M214.992233,238.028305 
	C213.761444,238.351929 212.531708,238.952713 211.299728,238.957306 
	C194.677734,239.019348 178.055359,239.015335 161.433334,238.958481 
	C160.374542,238.954849 159.317703,238.381958 158.588593,237.625916 
	C177.323868,237.114136 195.730499,237.050339 214.137131,236.986557 
	C214.137131,236.986557 214.580566,236.953171 214.774933,237.255768 
	C214.969299,237.558380 214.992233,238.028305 214.992233,238.028305 
z"/>
<path fill="#8FA7D7" opacity="1.000000" stroke="none" 
	d="
M278.950500,303.571381 
	C278.611725,302.474609 278.045715,300.904266 278.043457,299.333160 
	C278.000610,269.873077 278.024658,240.412857 278.046326,210.486053 
	C279.578613,209.808685 281.099213,209.597931 282.854675,209.643250 
	C277.836792,211.518875 279.291351,216.373520 279.187073,219.658157 
	C278.743408,233.634903 279.001495,247.633850 278.999390,261.624695 
	C278.997284,275.448944 278.990479,289.273224 278.950500,303.571381 
z"/>
<path fill="#ECF6FE" opacity="1.000000" stroke="none" 
	d="
M213.921753,236.596985 
	C195.730499,237.050339 177.323868,237.114136 158.454041,237.261475 
	C145.923920,237.324112 133.857010,237.302673 121.790092,237.282639 
	C119.811806,237.279358 117.833496,237.282211 115.356140,237.282211 
	C115.789795,236.100571 116.091324,235.278946 116.676781,234.246429 
	C118.462357,234.687012 119.961365,235.899353 121.466049,235.906418 
	C146.733810,236.025375 172.002304,235.981857 197.270584,236.005478 
	C202.749237,236.010605 208.227783,236.136902 213.921753,236.596985 
z"/>
<path fill="#4A72B9" opacity="1.000000" stroke="none" 
	d="
M297.309387,234.579727 
	C319.139069,234.587769 340.968719,234.595825 363.682373,234.745514 
	C366.380066,234.999084 368.193756,235.111008 370.007446,235.222931 
	C368.247955,235.482346 366.488953,235.963913 364.728943,235.967651 
	C341.185242,236.017670 317.641296,235.965698 294.097778,236.043076 
	C290.990814,236.053284 287.885803,236.638687 284.352020,236.938751 
	C284.724030,235.995041 285.523865,235.070251 286.901428,234.446167 
	C290.755920,234.691147 294.032654,234.635437 297.309387,234.579727 
z"/>
<path fill="#809BCB" opacity="1.000000" stroke="none" 
	d="
M144.405289,277.937500 
	C144.676422,277.599548 145.423553,277.053192 146.169586,277.054688 
	C169.236176,277.101013 192.302643,277.200897 215.680328,277.567902 
	C206.459900,278.229034 196.927414,278.947144 187.396851,278.922302 
	C173.224106,278.885315 159.052734,278.323090 144.405289,277.937500 
z"/>
<path fill="#4A72B9" opacity="1.000000" stroke="none" 
	d="
M367.954285,209.437393 
	C369.768677,211.379837 371.847443,213.540909 373.445343,216.012833 
	C377.344299,222.044357 381.020569,228.219833 385.612823,235.679611 
	C380.505646,235.679611 376.580933,235.679611 372.343201,235.422913 
	C375.102325,234.753250 378.174438,234.340271 381.684052,233.868484 
	C377.034302,225.689346 372.517090,217.743378 367.954285,209.437393 
z"/>
<path fill="#99AEDA" opacity="1.000000" stroke="none" 
	d="
M158.027618,209.355957 
	C158.274948,208.944122 158.798141,208.885651 160.164703,208.876648 
	C182.338898,208.925232 203.669708,208.924332 225.000534,208.923431 
	C225.024918,209.117966 225.049316,209.312515 225.012314,209.794647 
	C204.381287,210.055527 183.811661,210.035294 163.242096,209.989655 
	C161.595673,209.986008 159.949661,209.806915 158.027618,209.355957 
z"/>
<path fill="#ECF6FE" opacity="1.000000" stroke="none" 
	d="
M284.018188,210.360626 
	C303.290955,209.913773 322.793304,209.855682 342.778564,209.876526 
	C342.588959,210.301208 341.916016,210.949539 341.243988,210.948608 
	C322.245209,210.922302 303.246460,210.830505 284.018188,210.360626 
z"/>
<path fill="#8FA7D7" opacity="1.000000" stroke="none" 
	d="
M226.476990,335.927307 
	C226.030746,335.698517 226.047073,335.531708 226.097443,335.115540 
	C243.422073,334.872437 260.712646,334.878723 278.466614,334.859497 
	C277.529938,335.225281 276.131409,335.950287 274.729492,335.956818 
	C258.799805,336.031036 242.869614,335.995483 226.476990,335.927307 
z"/>
<path fill="#ECF6FE" opacity="1.000000" stroke="none" 
	d="
M100.057945,278.365540 
	C113.963417,277.932037 128.086105,277.891235 142.686127,277.909454 
	C142.496033,278.308105 141.828201,278.944458 141.161240,278.943573 
	C127.532478,278.925507 113.903831,278.834595 100.057945,278.365540 
z"/>
<path fill="#ECF6FE" opacity="1.000000" stroke="none" 
	d="
M158.787079,163.706741 
	C146.182526,164.136520 133.516846,164.115311 120.376701,164.060211 
	C120.556938,163.686203 121.212227,163.048843 121.866302,163.050079 
	C134.152939,163.073456 146.439438,163.172516 158.787079,163.706741 
z"/>
<path fill="#C6D8F4" opacity="1.000000" stroke="none" 
	d="
M381.807129,165.663986 
	C369.171814,166.106445 356.457520,166.103592 343.258301,166.069885 
	C343.440247,165.691849 344.107361,165.041748 344.773804,165.042419 
	C357.091949,165.054840 369.410004,165.144943 381.807129,165.663986 
z"/>
<path fill="#F8FDFF" opacity="1.000000" stroke="none" 
	d="
M206.995728,165.631042 
	C196.392014,166.093994 185.548843,166.174667 174.230133,166.143448 
	C174.433563,165.689545 175.112991,165.049149 175.791367,165.050247 
	C186.113068,165.066986 196.434647,165.167664 206.995728,165.631042 
z"/>
<path fill="#809BCB" opacity="1.000000" stroke="none" 
	d="
M221.923111,271.533752 
	C221.567398,267.092499 221.181763,262.188934 221.033966,257.278198 
	C220.888901,252.458389 220.985580,247.631302 220.988831,242.327454 
	C221.337616,243.341293 221.947754,244.832077 221.964294,246.329391 
	C222.055435,254.574814 222.001495,262.821838 221.923111,271.533752 
z"/>
<path fill="#ECF6FE" opacity="1.000000" stroke="none" 
	d="
M279.360352,333.979309 
	C278.910522,324.718811 278.849426,315.228973 278.891632,305.265564 
	C279.330017,306.302887 279.949646,307.813293 279.952728,309.324921 
	C279.969299,317.466431 279.832764,325.608307 279.360352,333.979309 
z"/>
<path fill="#4A72B9" opacity="1.000000" stroke="none" 
	d="
M282.357574,257.990356 
	C283.894806,263.782166 285.432037,269.574005 286.955963,275.753662 
	C285.292938,274.055420 283.643250,271.969330 282.068542,269.068054 
	C282.214874,264.832031 282.286224,261.411194 282.357574,257.990356 
z"/>
<path fill="#C6D8F4" opacity="1.000000" stroke="none" 
	d="
M282.273254,257.533203 
	C282.286224,261.411194 282.214874,264.832031 282.082794,268.721466 
	C281.676666,267.693054 281.039856,266.196991 281.035004,264.698883 
	C281.010712,257.210785 281.152191,249.722137 281.699249,242.400513 
	C282.230499,243.339828 282.297882,244.112305 282.365295,244.884796 
	C282.306488,248.948532 282.247711,253.012283 282.273254,257.533203 
z"/>
<path fill="#4A72B9" opacity="1.000000" stroke="none" 
	d="
M413.461121,277.953247 
	C413.060028,277.691742 413.076202,277.509003 413.105469,277.050598 
	C415.723236,276.664185 418.327881,276.553406 421.005920,276.804779 
	C418.678986,277.455292 416.278687,277.743622 413.461121,277.953247 
z"/>
<path fill="#4A72B9" opacity="1.000000" stroke="none" 
	d="
M282.589569,244.617432 
	C282.297882,244.112305 282.230499,243.339828 282.093445,242.182648 
	C282.434052,240.263916 282.844330,238.729858 283.586914,237.059875 
	C283.550781,239.399323 283.182343,241.874710 282.589569,244.617432 
z"/>
<path fill="#809BCB" opacity="1.000000" stroke="none" 
	d="
M89.469040,277.912384 
	C92.185745,277.677246 95.320045,277.515717 98.759308,277.621216 
	C96.005066,277.920837 92.945847,277.953400 89.469040,277.912384 
z"/>
<path fill="#99AEDA" opacity="1.000000" stroke="none" 
	d="
M297.271179,234.382690 
	C294.032654,234.635437 290.755920,234.691147 287.209473,234.419861 
	C289.977692,234.051407 293.015564,234.009964 296.504028,233.932465 
	C296.954620,233.896393 297.232941,234.185669 297.271179,234.382690 
z"/>
<path fill="#99AEDA" opacity="1.000000" stroke="none" 
	d="
M333.247253,168.018066 
	C331.173157,167.539169 329.296967,167.088989 327.164246,166.357864 
	C329.262177,166.456345 331.616638,166.835785 333.907349,167.648560 
	C333.843567,168.081894 333.445160,168.046783 333.247253,168.018066 
z"/>
<path fill="#99AEDA" opacity="1.000000" stroke="none" 
	d="
M172.712311,166.048126 
	C172.176376,166.538040 171.248810,166.994980 170.163818,167.729248 
	C169.584030,168.312134 169.161652,168.617676 168.466476,168.952362 
	C169.569336,167.992722 170.945007,167.003937 172.712311,166.048126 
z"/>
<path fill="#99AEDA" opacity="1.000000" stroke="none" 
	d="
M370.281250,235.156097 
	C368.193756,235.111008 366.380066,234.999084 364.130310,234.736908 
	C363.694275,234.586670 363.771027,234.192123 363.910034,234.046875 
	C366.286224,234.013885 368.523468,234.126144 370.936188,234.619537 
	C370.926117,235.030212 370.740570,235.059723 370.281250,235.156097 
z"/>
<path fill="#8FA7D7" opacity="1.000000" stroke="none" 
	d="
M347.324066,207.919891 
	C347.032135,206.617111 347.030243,205.164001 347.006592,203.272629 
	C347.194580,204.479431 347.404358,206.124512 347.324066,207.919891 
z"/>
<path fill="#8FA7D7" opacity="1.000000" stroke="none" 
	d="
M344.137634,210.003693 
	C344.319183,209.575195 344.862457,209.202255 345.732239,208.952042 
	C345.538971,209.402939 345.019135,209.731110 344.137634,210.003693 
z"/>
<path fill="#4A72B9" opacity="1.000000" stroke="none" 
	d="
M385.066742,169.657349 
	C384.760986,169.494675 384.418884,169.022873 384.083038,168.239441 
	C384.402985,168.401276 384.716675,168.874756 385.066742,169.657349 
z"/>
<path fill="#809BCB" opacity="1.000000" stroke="none" 
	d="
M215.263351,238.013824 
	C214.992233,238.028305 214.969299,237.558380 214.986481,237.324265 
	C215.314911,237.210999 215.626175,237.331863 216.007172,237.713684 
	C215.896103,237.982880 215.715286,237.991119 215.263351,238.013824 
z"/>
<path fill="#8FA7D7" opacity="1.000000" stroke="none" 
	d="
M346.334961,209.031250 
	C346.193176,208.725586 346.329620,208.379623 346.773560,208.032379 
	C346.925049,208.351044 346.769104,208.670990 346.334961,209.031250 
z"/>
<path fill="#4A72B9" opacity="1.000000" stroke="none" 
	d="
M224.691498,208.647568 
	C203.669708,208.924332 182.338898,208.925232 160.557373,208.839722 
	C161.199631,208.501862 162.292130,208.033447 163.385605,208.031113 
	C183.074814,207.988968 202.764160,207.999695 222.453461,208.020660 
	C223.096588,208.021347 223.739471,208.249557 224.691498,208.647568 
z"/>
</svg>